<?xml version="1.0" encoding="UTF-8"?>
<!DOCTYPE svg PUBLIC "-//W3C//DTD SVG 1.1//EN" "http://www.w3.org/Graphics/SVG/1.1/DTD/svg11.dtd">
<!-- Creator: CorelDRAW X6 -->
<svg xmlns="http://www.w3.org/2000/svg" xml:space="preserve" width="4.59722in" height="0.375in" version="1.1" style="shape-rendering:geometricPrecision; text-rendering:geometricPrecision; image-rendering:optimizeQuality; fill-rule:evenodd; clip-rule:evenodd"
viewBox="0 0 4597 375"
 xmlns:xlink="http://www.w3.org/1999/xlink">
 <defs>
  <style type="text/css">
   <![CDATA[
    .fil4 {fill:#287867}
    .fil1 {fill:#287867;fill-rule:nonzero}
    .fil3 {fill:#A83336;fill-rule:nonzero}
    .fil2 {fill:#E1C6AE;fill-rule:nonzero}
    .fil0 {fill:#FEFEFE;fill-rule:nonzero}
   ]]>
  </style>
 </defs>
 <g id="Layer_x0020_1">
  <metadata id="CorelCorpID_0Corel-Layer"/>
  <path class="fil0" d="M150 7l0 0c0,0 0,0 0,0l0 0c-1,0 -63,1 -150,-17l0 0 0 250c0,4 0,7 0,7l0 0 0 0c1,12 4,21 11,29 5,5 11,10 20,15 2,1 5,3 8,4 2,1 4,2 7,3l0 0 0 0c2,1 8,3 10,4l95 36 0 0 0 0 95 -36c2,-1 8,-3 10,-4l0 0 0 0c2,-1 5,-2 7,-3 3,-1 5,-3 8,-4 9,-5 15,-10 20,-15 7,-8 10,-17 11,-29l0 0 0 0c0,0 0,-3 0,-7l0 -250 0 0c-87,18 -148,17 -150,17z"/>
  <path class="fil1" d="M150 21l0 0c0,0 0,0 0,0l0 0c-1,0 -58,1 -137,-16l0 229c0,4 0,6 0,6l0 0 0 0c1,11 4,19 10,26 4,4 10,9 18,14 2,1 5,2 7,4 2,1 4,2 6,3l0 0 0 0c2,1 7,3 9,4l87 33 0 0 87 -33c2,-1 7,-3 9,-4l0 0 0 0c2,-1 4,-2 6,-3 3,-1 5,-2 7,-4 8,-5 14,-9 18,-14 6,-7 9,-16 10,-26l0 0 0 0c0,0 0,-3 0,-6l0 -229c-79,16 -136,16 -137,16z"/>
  <path class="fil2" d="M150 35l0 0c0,0 0,0 0,0l0 0c-1,0 -53,0 -125,-15l0 58c73,15 124,15 125,15l0 0c0,0 0,0 0,0l0 0 0 0c1,0 53,0 125,-15l0 -58c-73,15 -124,15 -125,15z"/>
  <path class="fil3" d="M150 93l0 0c0,0 0,0 0,0l0 0c-1,0 -53,0 -125,-15l0 130c73,15 124,15 125,15l0 0c0,0 0,0 0,0 0,0 0,0 0,0l0 0c1,0 53,0 125,-15l0 -130c-73,15 -124,15 -125,15z"/>
  <path class="fil2" d="M25 235l0 0c0,10 3,17 9,24 4,4 9,8 16,12 2,1 4,2 7,3 2,1 4,2 6,2l0 0 0 0c2,1 7,3 8,4l79 30 0 0 79 -30c2,-1 7,-3 8,-4l0 0 0 0c2,-1 4,-2 6,-2 2,-1 5,-2 7,-3 7,-4 13,-8 16,-12 6,-7 9,-14 9,-24l0 0 0 0c0,0 0,-2 0,-6l0 -21c-73,15 -124,15 -125,15l0 0c0,0 0,0 0,0 0,0 0,0 0,0l0 0c-1,0 -53,0 -125,-15l0 21c0,3 0,6 0,6l0 0z"/>
  <polygon class="fil4" points="69,34 75,52 93,52 78,63 84,81 69,70 54,81 59,63 44,52 63,52 "/>
  <polygon class="fil4" points="231,34 237,52 256,52 241,63 246,81 231,70 216,81 222,63 207,52 225,52 "/>
  <polygon class="fil4" points="150,41 156,59 174,59 160,70 165,87 150,77 135,87 140,70 126,59 144,59 "/>
  <polygon class="fil1" points="150,228 144,235 144,252 147,261 147,277 153,277 153,261 156,252 156,235 "/>
  <polygon class="fil1" points="153,291 153,282 147,282 147,291 144,297 150,305 156,297 "/>
  <polygon class="fil1" points="158,282 158,289 162,294 169,288 169,282 "/>
  <polygon class="fil1" points="166,253 158,261 158,277 164,277 164,268 170,261 170,261 178,266 183,261 183,253 "/>
  <polygon class="fil1" points="142,282 142,289 138,294 131,288 131,282 "/>
  <polygon class="fil1" points="134,253 142,261 142,277 136,277 136,268 130,261 130,261 122,266 117,261 117,253 "/>
  <polygon class="fil2" points="210,114 210,189 160,189 156,192 150,197 144,192 140,189 90,189 90,114 80,122 80,199 139,199 144,204 150,209 156,204 161,199 220,199 220,122 "/>
  <polygon class="fil2" points="158,108 156,109 150,115 144,109 142,108 101,108 101,178 142,178 145,181 150,185 155,181 158,178 199,178 199,108 "/>
  <path class="fil2" d="M231 130l0 48c14,-2 28,-5 44,-8l0 -48c-16,3 -31,6 -44,8z"/>
  <path class="fil2" d="M69 130c-14,-2 -28,-5 -44,-8l0 48c16,3 31,6 44,8l0 -48z"/>
  <polygon class="fil1" points="231,222 227,226 227,239 229,245 229,256 233,256 233,245 236,239 236,226 "/>
  <polygon class="fil1" points="233,266 233,259 229,259 229,266 227,270 231,276 236,270 "/>
  <polygon class="fil1" points="237,259 237,264 240,268 245,264 245,259 "/>
  <polygon class="fil1" points="242,239 237,245 237,256 241,256 241,250 245,245 245,245 251,248 254,245 254,239 "/>
  <polygon class="fil1" points="226,259 226,264 223,268 218,264 218,259 "/>
  <polygon class="fil1" points="220,239 226,245 226,256 221,256 221,250 217,245 217,245 211,248 208,245 208,239 "/>
  <polygon class="fil1" points="69,222 64,226 64,226 64,239 64,239 67,245 67,256 71,256 71,245 73,239 73,226 "/>
  <polygon class="fil1" points="71,266 71,259 67,259 67,266 64,270 69,276 73,270 "/>
  <polygon class="fil1" points="74,259 74,264 77,268 82,264 82,259 "/>
  <polygon class="fil1" points="80,239 74,245 74,256 79,256 79,250 83,245 83,245 89,248 92,245 92,239 "/>
  <polygon class="fil1" points="63,259 63,264 60,268 55,264 55,259 "/>
  <polygon class="fil1" points="58,239 63,245 63,256 59,256 59,250 55,245 55,245 49,248 46,245 46,239 "/>
  <path class="fil0" d="M3334 98c5,0 15,-17 15,-22 0,-5 -11,-23 -15,-23 -4,0 -15,18 -15,23 0,5 11,22 15,22z"/>
  <path class="fil0" d="M3532 271l0 -73c0,-34 -11,-83 -61,-83 -36,0 -55,34 -54,29l0 -25c0,-4 -2,-7 -4,-7 -9,0 -15,15 -44,23 -2,0 -7,0 -7,4 0,9 29,-12 29,24l0 110c0,21 -10,22 -17,24 0,0 -1,0 -1,0 -7,0 -23,-3 -23,-19l0 -159c0,-4 -2,-7 -4,-7 -9,0 -14,16 -38,23 -2,0 -5,1 -5,3 0,9 21,-9 20,24l0 104c1,27 -14,29 -22,29 -12,0 -9,1 -9,5 0,4 8,5 20,5 4,0 14,-2 26,-2 15,0 27,2 35,2 4,0 17,-2 36,-2 22,0 29,2 35,2 6,0 12,-2 8,-6 -6,-6 -33,1 -33,-30l0 -102c0,-7 13,-34 44,-34 30,0 43,33 43,55l0 83c0,32 -12,22 -16,29 -2,4 2,5 7,5 5,0 13,-2 27,-2 18,0 26,2 31,2 4,0 10,-3 6,-6 -9,-8 -28,4 -28,-30z"/>
  <path class="fil0" d="M701 16c5,-1 8,-3 8,-3 0,-4 -1,-4 -6,-4 -9,0 -15,2 -24,2 -10,0 -18,-1 -27,-1 -5,0 -4,2 -4,4 0,3 9,1 15,13 3,6 2,19 -1,27l-72 197 -31 -87 -12 -32c0,0 -2,1 7,-26l17 -51c8,-25 16,-38 27,-38 13,0 13,-8 3,-8 -10,0 -16,1 -25,1 -9,0 -14,-1 -24,-1 -4,0 -8,1 -7,4 0,3 6,2 10,4 7,4 11,18 6,33l-20 63 -22 -59c-4,-11 -10,-36 0,-38 10,-2 9,-8 3,-8 -12,0 -19,2 -31,2 -13,0 -23,-2 -35,-2 -3,0 -7,0 -6,5 1,3 7,2 11,4 15,10 18,22 23,36l33 93c6,17 6,10 2,25l-29 79 -71 -203c-6,-15 -9,-26 4,-32 5,-3 7,-3 7,-4 1,-1 1,-5 -6,-4 -13,0 -21,2 -33,2 -13,0 -23,-2 -35,-2 -4,0 -5,2 -5,5 0,5 10,2 19,12 5,5 14,24 16,30l85 245c2,4 2,11 7,11 4,0 5,-8 6,-11l45 -123 44 117c2,5 4,17 9,17 4,0 5,-6 7,-12l85 -242c7,-19 15,-40 29,-42z"/>
  <path class="fil0" d="M1644 296c-43,0 -61,-54 -61,-98 0,-38 15,-73 51,-73 44,0 60,47 60,93 0,56 -20,78 -51,78zm-244 -69c-30,0 -40,-29 -40,-56 0,-28 8,-51 38,-51 30,0 42,31 42,58 0,28 -13,49 -41,49zm-29 66c3,0 4,1 38,2 35,1 48,11 50,20 4,16 -8,51 -58,47 -32,-2 -41,-17 -44,-21 -12,-17 -2,-48 14,-49zm269 -181c-47,0 -83,47 -83,102 0,28 8,50 20,66 -4,3 -13,10 -31,10 -15,0 -24,-9 -25,-29l0 -120c0,0 46,0 48,0 3,0 9,-21 10,-22 1,-3 1,-5 2,-7 1,-4 -2,-4 -5,0 -2,2 -5,8 -14,8l-40 0c0,-35 0,-50 -5,-50 -5,0 -4,1 -9,17 -6,21 -26,32 -38,38 -5,1 -12,2 -18,0 -11,-2 -23,-15 -55,-15 -34,0 -64,28 -64,65 0,20 9,40 25,50 -3,2 -22,18 -20,37 0,0 0,20 15,26 -5,2 -10,5 -14,9 -10,-4 -25,-1 -25,-27l0 -73c0,-34 -11,-83 -61,-83 -36,0 -55,34 -54,29l0 -25c0,-4 -2,-7 -4,-7 -9,0 -10,14 -42,22 -2,0 -6,1 -6,5 0,9 25,-10 25,24l0 110c0,24 -19,24 -22,24 -1,0 -3,0 -4,0 -8,-1 -22,-4 -22,-19l0 -159c0,-4 -2,-7 -4,-7 -9,0 -14,16 -38,23 -2,0 -5,1 -5,3 0,9 21,-9 20,24l0 104c1,25 -12,29 -21,29 -10,-1 -17,-5 -17,-20l0 -74c0,-38 -14,-87 -62,-87 -21,0 -39,12 -53,28l0 -127c0,-4 -2,-7 -4,-7 -6,0 -15,17 -42,23 -2,0 -9,1 -9,4 0,9 28,-4 29,24l0 217c0,22 -19,19 -22,26 -1,3 1,4 4,4 6,0 22,-2 34,-2 12,0 30,2 38,2 4,0 6,-1 6,-6 -4,-8 -33,4 -33,-34l0 -93c0,-23 27,-40 43,-40 13,0 45,10 45,65l0 81c0,16 -17,18 -18,23 0,4 2,5 6,5 4,0 16,-2 30,-2 8,0 15,0 22,1 3,1 8,1 14,1 4,0 14,-2 26,-2 12,0 21,1 29,1 1,0 3,0 4,0 1,0 1,0 2,0 0,0 0,0 0,0 5,0 9,0 10,0 4,0 12,-2 32,-2 22,0 29,2 35,2 6,0 12,-2 8,-6 -6,-6 -33,1 -33,-30l0 -102c0,-7 13,-34 44,-34 30,0 43,33 43,55l0 83c0,29 -12,22 -16,29 -2,4 2,5 7,5 5,0 13,-2 27,-2 13,0 22,1 27,1 -4,6 -7,13 -7,20 -2,36 42,49 79,48 73,-1 94,-52 79,-79 -16,-28 -49,-27 -81,-27 -60,0 -49,-37 -24,-36 6,0 3,2 23,2 35,0 68,-24 67,-63 0,-3 1,-15 -8,-31 16,0 10,0 35,0l0 109c0,49 24,58 41,58 25,0 43,-16 46,-24 15,16 35,24 59,24 46,0 80,-42 80,-97 0,-83 -52,-100 -81,-100z"/>
  <path class="fil0" d="M1880 271l0 -73c0,-34 -11,-83 -61,-83 -36,0 -55,34 -54,29l0 -25c0,-4 -2,-7 -4,-7 -9,0 -15,15 -44,23 -2,0 -7,0 -7,4 0,9 29,-12 29,24l0 110c0,29 -19,22 -24,29 -2,4 4,5 8,5 4,0 12,-2 32,-2 22,0 29,2 35,2 6,0 12,-2 8,-6 -6,-6 -33,1 -33,-30l0 -102c0,-7 13,-34 44,-34 30,0 43,33 43,55l0 83c0,32 -12,22 -16,29 -2,4 2,5 7,5 5,0 13,-2 27,-2 18,0 26,2 31,2 4,0 10,-3 6,-6 -9,-8 -28,4 -28,-30z"/>
  <path class="fil0" d="M1110 98c5,0 15,-17 15,-22 0,-5 -11,-23 -15,-23 -4,0 -15,18 -15,23 0,5 11,22 15,22z"/>
  <path class="fil0" d="M741 260c0,24 -24,36 -37,36 -20,0 -33,-13 -33,-38 0,-39 47,-46 71,-53l0 55zm121 -62c-7,-3 -18,-10 -24,-13 -23,-13 -32,-21 -33,-33 -1,-21 16,-31 32,-30 36,-1 41,40 45,40 6,0 4,-5 4,-17 0,-3 0,-18 -2,-22 -4,-7 -30,-11 -36,-11 -2,0 -8,0 -9,0 -2,0 -4,0 -4,0 -26,0 -50,16 -49,51 1,32 38,50 58,62 15,8 32,17 32,37 0,23 -18,38 -37,37 -45,-1 -39,-57 -47,-57 -6,0 -4,14 -4,22 0,7 0,14 0,20 -1,5 -3,10 -8,10 -18,1 -13,-27 -13,-42l0 -92c-1,-28 -22,-47 -54,-47 -44,0 -76,55 -61,72 4,4 18,-12 19,-12 1,-1 1,-2 1,-2 0,-19 14,-42 34,-44 23,-2 34,15 34,38l0 30c-87,17 -100,46 -100,70 0,32 22,46 46,46 21,0 41,-10 57,-26 5,15 15,24 29,23 5,0 6,1 21,-5 5,-1 5,-1 11,0 8,3 19,8 38,8 29,0 55,-27 55,-60 0,-21 -6,-34 -34,-51z"/>
  <path class="fil0" d="M3896 263c-4,0 -15,19 -15,23 0,5 11,23 15,23 5,0 15,-18 15,-23 0,-5 -11,-23 -15,-23z"/>
  <path class="fil0" d="M4380 279l0 -155c0,-9 -5,-11 -6,-11 -6,0 -9,1 -13,2 -4,1 -8,3 -19,3 -2,0 -11,-2 -11,4 1,5 23,2 23,18l0 112c-2,20 -18,41 -38,41 -5,0 -34,-3 -34,-52l0 -117c0,-9 -5,-11 -6,-11 -6,0 -9,1 -13,2 -4,1 -9,3 -19,3 -5,0 -11,-1 -10,4 1,5 23,0 23,18l0 108c0,39 23,62 51,62 19,0 36,-4 47,-26l1 0 0 19c0,2 0,7 3,7 5,0 8,-4 12,-6 4,-1 5,-5 18,-6 6,0 12,-3 12,-7 -2,-8 -20,1 -20,-11z"/>
  <path class="fil0" d="M4164 296c-43,0 -61,-54 -61,-98 0,-38 15,-73 51,-73 44,0 60,47 60,93 0,56 -20,78 -51,78zm-4 -184c-47,0 -83,47 -83,102 0,25 6,45 16,61 -11,8 -32,16 -71,16 -31,0 -28,-11 -28,-36l0 -207c0,-38 29,-27 29,-34 0,-5 -4,-4 -9,-4 -5,0 -15,2 -36,2 -18,0 -34,-2 -41,-2 -5,0 -9,1 -7,5 4,8 31,1 31,24l0 217c0,21 3,34 -6,39 -12,7 -25,7 -24,12 1,3 6,3 10,3 15,0 35,-2 49,-2 28,-1 55,2 83,2 16,0 20,-3 32,-19 0,0 0,0 1,-1 14,13 34,21 56,21 46,0 80,-42 80,-97 0,-83 -52,-100 -81,-100z"/>
  <path class="fil0" d="M3705 146c-11,-5 -27,-15 -34,-19 -34,-20 -47,-32 -48,-51 -2,-32 29,-50 51,-48 28,0 51,17 61,54 1,4 5,13 8,13 3,0 4,-3 3,-6l-5 -58c0,-5 -2,-6 -4,-6 -3,0 -5,5 -8,5 -4,0 -16,-16 -54,-16 -3,0 -6,0 -6,0 -38,-1 -73,24 -72,78 1,48 55,76 84,94 22,13 44,34 44,57 -1,35 -23,59 -51,57 -66,-1 -57,-88 -69,-88 -8,0 -6,22 -7,33 0,27 -1,50 2,54 1,1 4,1 11,1 13,0 29,15 67,15 42,1 77,-39 77,-90 0,-31 -9,-51 -50,-78z"/>
  <path class="fil0" d="M4446 98c5,0 15,-17 15,-22 0,-5 -11,-23 -15,-23 -4,0 -15,18 -15,23 0,5 11,22 15,22z"/>
  <path class="fil0" d="M4484 297c-7,0 -23,-3 -23,-19l0 -159c0,-4 -2,-7 -4,-7 -9,0 -14,16 -38,23 -2,0 -5,1 -5,3 0,9 21,-9 20,24l0 104c1,27 -14,29 -22,29 -12,0 -9,1 -9,5 0,4 8,5 20,5 4,0 14,-2 26,-2 15,0 27,2 35,2 5,0 11,-12 1,-10z"/>
  <path class="fil0" d="M4570 198c-7,-4 -18,-10 -24,-13 -23,-13 -33,-21 -33,-33 -1,-21 16,-31 32,-30 36,-1 41,40 45,40 6,0 4,-5 4,-17 0,-3 0,-18 -2,-22 -4,-7 -30,-11 -37,-11 -2,0 -8,0 -9,0 -2,0 -4,0 -4,0 -26,0 -50,16 -49,51 1,32 38,50 58,62 15,8 32,16 32,37 0,23 -18,38 -37,37 -45,-1 -39,-57 -47,-57 -6,0 -4,14 -4,22 0,18 -1,33 1,35 1,1 3,0 7,0 9,0 20,10 46,10 29,0 55,-27 55,-60 0,-21 -6,-34 -34,-51z"/>
  <path class="fil0" d="M3871 279c-4,2 -12,11 -33,11 -15,0 -24,-9 -25,-29l0 -126c0,0 46,0 48,0 3,0 9,-21 10,-22 1,-3 1,-5 2,-7 1,-4 -2,-4 -5,0 -2,2 -5,8 -14,8l-40 0c0,-35 0,-44 -5,-44 -5,0 -4,1 -9,17 -8,26 -36,37 -45,43 -2,1 -2,1 -2,3 0,3 11,2 33,3l0 116c0,49 24,58 41,58 27,0 46,-19 47,-26 0,-4 -1,-4 -3,-4z"/>
  <path class="fil0" d="M2632 123c20,0 41,22 41,47 0,7 -2,9 -7,9l-73 0c0,-25 16,-56 39,-56zm73 141c-8,0 -20,23 -52,23 -23,0 -60,-22 -60,-96l99 0c9,0 13,0 13,-8 0,-18 -20,-71 -66,-71 -47,0 -73,48 -73,105 0,29 19,92 75,92 34,0 66,-32 66,-42 0,-1 0,-3 -1,-3z"/>
  <path class="fil0" d="M2177 18c1,-2 -4,-3 -5,-3 -6,0 -20,1 -26,1 -13,0 -23,-1 -36,-1 -1,0 -7,1 -7,3 0,9 31,-2 31,37l0 152c0,45 -14,92 -76,92 -44,0 -68,-28 -68,-89l0 -165c0,-27 21,-21 22,-28 0,-6 -19,-2 -21,-2 -10,0 -17,1 -28,1 -9,0 -20,-1 -28,-1 -2,0 -8,0 -9,2 -3,8 27,4 27,26l0 157c0,59 16,116 103,114 102,-2 101,-94 101,-112l0 -146c0,-35 17,-32 20,-37z"/>
  <path class="fil0" d="M2581 122c2,-3 3,-8 -8,-7 -6,0 -11,1 -17,1 -8,0 -10,0 -18,-1 -10,0 -12,1 -12,4 2,9 22,0 19,26 -2,22 -9,40 -16,58l-25 66 -36 -110c-4,-14 -6,-21 -6,-23 0,-14 17,-11 20,-16 2,-4 -3,-6 -8,-6 -4,0 -10,2 -23,2 -11,0 -20,0 -25,-1 -13,-2 -12,5 -7,7 4,2 7,0 13,19l56 159c1,3 3,11 7,11 6,0 6,-6 13,-24 0,0 54,-150 57,-156 7,-11 13,-7 15,-10z"/>
  <path class="fil0" d="M2789 114c-15,0 -26,18 -33,31l-1 0 0 -28c0,-4 -2,-7 -4,-7 -6,0 -10,12 -41,19 -2,0 -7,1 -7,4 0,9 26,-3 26,28l0 116c0,18 -18,16 -18,25 0,3 1,4 4,4 3,0 9,-2 33,-2 20,0 29,2 34,2 4,0 6,-1 6,-5 0,-14 -32,7 -32,-34l0 -99c0,-6 9,-26 24,-26 13,0 15,10 22,10 4,0 13,-13 13,-20 0,-8 -16,-20 -24,-20z"/>
  <path class="fil0" d="M3256 116c-4,0 -14,1 -23,1 -11,0 -16,-1 -21,-1 -7,0 -14,0 -13,5 1,5 25,3 25,29 0,3 0,8 -5,25l-30 95 -42 -117c0,0 -2,-4 -2,-11 0,-19 22,-17 23,-20 1,-3 -3,-6 -9,-6 -6,0 -15,0 -29,0 -2,0 -4,0 -6,0 0,0 0,0 0,0l-17 0c0,0 0,0 -1,0l-40 0c0,-35 0,-44 -5,-44 -5,0 -4,1 -9,17 -8,26 -36,37 -45,43 -2,1 -2,1 -2,3 0,3 11,2 33,2l0 116c0,49 24,58 41,58 27,0 46,-19 47,-26 0,-4 0,-4 -3,-4 -4,2 -12,11 -33,11 -15,0 -24,-9 -25,-29l0 -126c0,0 36,0 46,0 1,1 1,2 1,3l43 121c4,10 6,13 10,31 3,11 2,22 2,22 -4,18 -15,29 -32,62 -2,3 25,0 26,-1 2,-1 2,-1 4,-6l19 -56 53 -163c8,-28 20,-23 22,-27 1,-2 -1,-5 -5,-5z"/>
  <polygon class="fil0" points="3187,308 3186,310 3186,311 "/>
  <path class="fil0" d="M2976 98c5,0 15,-17 15,-22 0,-5 -11,-23 -15,-23 -4,0 -15,18 -15,23 0,5 11,22 15,22z"/>
  <path class="fil0" d="M3014 297c-7,0 -23,-3 -23,-19l0 -159c0,-4 -2,-7 -4,-7 -9,0 -14,16 -38,23 -2,0 -5,1 -5,3 0,9 21,-9 20,24l0 104c1,27 -14,29 -22,29 -12,0 -9,1 -9,5 0,4 8,5 20,5 4,0 14,-2 26,-2 15,0 27,2 35,2 5,0 11,-12 1,-10z"/>
  <path class="fil0" d="M2388 98c5,0 15,-17 15,-22 0,-5 -11,-23 -15,-23 -4,0 -15,18 -15,23 0,5 11,22 15,22z"/>
  <path class="fil0" d="M2426 297c-7,0 -23,-3 -23,-19l0 -159c0,-4 -2,-7 -4,-7 -9,0 -14,16 -38,23 -2,0 -5,1 -5,3 0,9 21,-9 20,24l0 104c1,27 -14,29 -22,29 -1,0 -2,0 -3,0 -8,-1 -15,-5 -15,-26l0 -73c0,-34 -11,-83 -61,-83 -36,0 -55,34 -54,29l0 -25c0,-4 -2,-7 -4,-7 -9,0 -15,15 -44,23 -2,0 -7,0 -7,4 0,9 29,-12 29,24l0 110c0,29 -19,22 -24,29 -2,4 4,5 8,5 4,0 12,-2 32,-2 22,0 29,2 35,2 6,0 12,-2 8,-6 -6,-6 -33,1 -33,-30l0 -102c0,-7 13,-34 44,-34 30,0 43,33 43,55l0 83c0,32 -12,22 -16,29 -2,4 2,5 7,5 5,0 13,-2 27,-2 18,0 26,2 31,2 1,0 1,0 2,0 2,0 3,0 5,0 4,0 14,-2 26,-2 15,0 27,2 35,2 5,0 11,-12 1,-10z"/>
  <path class="fil0" d="M2896 198c-7,-4 -18,-10 -24,-13 -23,-13 -33,-21 -33,-33 -1,-21 16,-31 32,-30 36,-1 41,40 45,40 6,0 4,-5 4,-17 0,-3 0,-18 -2,-22 -4,-7 -30,-11 -37,-11 -2,0 -8,0 -9,0 -2,0 -4,0 -4,0 -26,0 -50,16 -49,51 1,32 38,50 58,62 15,8 32,16 32,37 0,23 -18,38 -37,37 -45,-1 -39,-57 -47,-57 -6,0 -4,14 -4,22 0,18 -1,33 1,35 1,1 3,0 7,0 9,0 20,10 46,10 29,0 55,-27 55,-60 0,-21 -6,-34 -34,-51z"/>
 </g>
</svg>
